<?xml version="1.0" standalone="no"?>
<!DOCTYPE svg PUBLIC "-//W3C//DTD SVG 20010904//EN"
 "http://www.w3.org/TR/2001/REC-SVG-20010904/DTD/svg10.dtd">
<svg version="1.0" xmlns="http://www.w3.org/2000/svg"
 width="2000.000000pt" height="2000.000000pt" viewBox="0 0 2000.000000 2000.000000"
 preserveAspectRatio="xMidYMid meet">
<metadata>
Created by potrace 1.14, written by Peter Selinger 2001-2017
</metadata>
<g transform="translate(0.000000,2000.000000) scale(0.100000,-0.100000)"
fill="#000000" stroke="none">
<path d="M9859 19436 c-2 -2 -35 -6 -74 -9 -59 -5 -120 -15 -251 -41 -52 -10
-232 -70 -307 -102 -127 -54 -129 -55 -752 -414 -82 -48 -226 -131 -320 -185
-93 -54 -224 -129 -290 -168 -66 -38 -134 -78 -151 -87 -17 -10 -413 -238
-880 -508 -467 -269 -865 -499 -884 -510 -19 -11 -91 -52 -160 -92 -185 -107
-504 -292 -680 -393 -145 -84 -488 -282 -1380 -797 -206 -119 -395 -228 -420
-242 -25 -14 -128 -73 -230 -133 -102 -59 -232 -134 -290 -168 -384 -222 -470
-282 -642 -447 -115 -111 -271 -321 -357 -480 -93 -173 -176 -415 -205 -600
-3 -19 -8 -47 -10 -63 -22 -134 -29 -637 -9 -637 6 0 25 11 41 25 17 14 33 25
36 25 4 0 44 24 89 53 45 30 104 67 130 83 27 16 61 37 75 46 15 9 38 23 52
31 14 7 86 50 160 94 74 44 162 95 195 113 488 272 955 506 1355 682 74 32
153 67 175 77 57 27 379 159 450 186 33 12 128 48 210 80 222 85 788 279 890
305 17 4 98 28 180 53 83 25 193 57 245 71 147 40 363 98 381 101 9 2 81 19
160 38 79 20 155 38 169 41 14 2 98 20 187 40 89 20 177 38 195 41 18 3 89 17
158 30 187 36 547 97 655 110 28 4 57 8 65 10 8 2 42 7 75 10 33 4 67 8 75 10
8 3 40 7 70 10 30 3 89 9 130 15 41 5 100 12 130 15 30 3 71 8 90 10 19 3 64
7 100 10 36 3 90 7 120 10 165 16 351 30 530 40 465 27 1402 26 1775 0 152
-11 216 -16 290 -20 44 -3 98 -8 120 -10 22 -2 74 -6 115 -10 89 -7 162 -14
210 -20 19 -2 58 -7 85 -10 170 -18 309 -35 365 -44 36 -5 88 -12 115 -16 28
-3 61 -8 75 -10 14 -3 41 -7 60 -9 35 -4 152 -23 200 -31 14 -3 68 -12 120
-20 52 -9 127 -22 167 -30 39 -8 89 -18 110 -21 67 -10 427 -84 458 -94 17 -5
48 -12 70 -16 88 -13 728 -180 990 -258 316 -93 938 -302 1030 -345 11 -6 74
-30 140 -55 107 -40 244 -94 330 -131 17 -7 84 -35 151 -63 66 -28 147 -63
180 -77 32 -15 68 -31 79 -36 11 -4 67 -30 125 -57 424 -197 765 -369 1047
-529 62 -34 115 -63 118 -63 3 0 22 -11 43 -24 20 -13 109 -65 197 -116 88
-51 242 -144 342 -207 100 -62 185 -113 190 -113 9 0 8 384 -1 500 -4 41 -11
100 -16 130 -5 30 -12 69 -14 85 -3 17 -15 66 -26 110 -120 460 -392 858 -775
1132 -92 66 -123 84 -1015 599 -322 185 -729 420 -905 522 -176 102 -338 195
-360 208 -22 12 -80 45 -130 74 -49 29 -103 60 -120 70 -16 9 -91 52 -165 95
-74 43 -148 86 -165 95 -16 10 -133 77 -260 150 -297 172 -652 377 -690 400
-16 9 -165 95 -330 190 -165 95 -313 181 -330 191 -16 10 -41 24 -55 32 -14 7
-144 82 -290 166 -146 85 -281 162 -300 173 -49 28 -121 69 -360 209 -41 24
-84 49 -95 55 -28 15 -390 224 -640 369 -115 67 -217 125 -225 128 -8 4 -28
16 -45 26 -249 155 -531 269 -755 306 -19 3 -60 10 -90 16 -52 10 -412 23
-421 15z"/>
<path d="M9597 15304 c-1 -1 -85 -5 -187 -9 -102 -3 -205 -8 -230 -10 -25 -2
-88 -7 -140 -10 -151 -9 -253 -16 -280 -20 -14 -2 -64 -6 -112 -10 -49 -3 -96
-8 -105 -9 -10 -2 -54 -7 -97 -11 -43 -4 -86 -8 -96 -10 -9 -2 -49 -6 -89 -10
-40 -3 -80 -8 -89 -9 -9 -2 -43 -7 -76 -11 -32 -3 -68 -8 -80 -10 -11 -2 -58
-9 -103 -15 -134 -18 -193 -26 -243 -35 -14 -3 -41 -7 -60 -10 -19 -3 -60 -10
-90 -15 -30 -5 -71 -12 -90 -15 -82 -13 -106 -18 -210 -38 -79 -16 -217 -43
-260 -51 -14 -2 -55 -11 -91 -20 -37 -8 -78 -17 -90 -20 -23 -4 -159 -34 -189
-41 -8 -2 -71 -18 -140 -35 -69 -18 -134 -33 -145 -35 -28 -5 -414 -111 -514
-141 -47 -15 -89 -27 -95 -28 -39 -8 -619 -196 -661 -215 -11 -5 -56 -22 -100
-36 -143 -49 -436 -163 -745 -290 -96 -39 -318 -137 -455 -201 -188 -87 -229
-106 -400 -191 -170 -85 -247 -125 -425 -220 -41 -22 -111 -59 -155 -83 -44
-23 -85 -46 -91 -51 -6 -5 -37 -23 -70 -40 -32 -17 -75 -41 -94 -54 -19 -12
-80 -49 -135 -81 -136 -80 -141 -83 -226 -134 -41 -24 -76 -47 -79 -51 -3 -3
-16 -12 -30 -19 -64 -33 -470 -304 -471 -314 -3 -32 -4 -4313 -1 -4327 2 -11
62 41 185 165 159 158 332 322 461 436 22 19 47 42 56 50 33 32 248 214 360
305 25 20 54 44 65 54 94 79 451 347 601 451 227 157 676 450 690 450 3 0 102
58 154 90 211 131 788 427 1095 561 77 34 163 72 190 85 28 12 73 31 100 42
28 11 91 36 140 56 234 96 603 227 860 306 122 38 294 90 316 95 8 2 73 19
145 38 157 43 280 74 314 81 14 3 43 10 65 15 22 5 51 12 65 15 14 2 111 23
215 45 105 22 233 47 285 56 112 19 138 24 165 29 11 2 42 7 68 10 27 4 56 9
65 11 10 1 40 6 67 9 28 4 77 11 110 16 70 11 207 27 285 35 30 3 66 7 80 10
14 3 61 7 105 10 44 4 96 8 115 10 19 2 76 6 125 10 50 4 109 8 131 10 292 26
1224 26 1534 0 25 -2 86 -6 135 -10 50 -3 101 -8 115 -10 14 -2 65 -6 113 -10
48 -3 98 -8 110 -11 12 -2 49 -6 82 -9 33 -4 92 -10 130 -16 39 -5 86 -11 105
-13 77 -10 256 -36 280 -41 14 -3 43 -8 65 -11 22 -3 78 -12 125 -21 47 -8 94
-16 105 -18 11 -2 31 -6 45 -8 63 -14 138 -28 170 -33 19 -3 38 -8 41 -10 3
-2 19 -6 35 -8 16 -3 38 -8 49 -10 11 -3 54 -12 95 -21 41 -9 100 -22 130 -30
30 -8 66 -16 80 -19 262 -52 1141 -326 1385 -431 17 -7 57 -23 90 -35 33 -12
74 -28 90 -35 17 -7 80 -33 140 -58 61 -25 130 -54 155 -65 278 -125 374 -170
550 -257 113 -56 259 -131 325 -167 66 -36 152 -82 190 -103 39 -21 87 -49
107 -62 21 -12 40 -23 43 -23 3 0 18 -9 33 -19 15 -11 70 -44 122 -75 52 -31
104 -62 114 -69 11 -6 69 -43 130 -81 98 -60 346 -226 490 -327 100 -69 463
-343 570 -430 61 -49 118 -95 126 -102 44 -36 235 -199 299 -256 206 -183 319
-290 528 -498 95 -94 173 -166 174 -160 1 7 2 992 3 2190 l1 2178 -65 43
c-280 184 -329 216 -335 216 -3 0 -11 5 -18 10 -15 13 -159 106 -173 111 -5 2
-85 49 -179 105 -192 114 -357 208 -490 279 -49 26 -118 63 -153 82 -135 74
-563 284 -772 380 -30 14 -83 38 -118 54 -35 16 -65 29 -68 29 -3 0 -31 12
-62 26 -144 67 -546 228 -847 339 -258 96 -775 261 -1120 358 -199 57 -720
185 -825 204 -14 2 -53 10 -86 18 -34 8 -73 16 -85 19 -244 47 -360 68 -384
72 -16 3 -66 11 -110 19 -100 17 -139 24 -190 31 -22 3 -62 9 -90 14 -27 5
-75 12 -105 15 -99 12 -125 15 -140 20 -13 3 -35 6 -155 20 -16 2 -59 6 -95 9
-36 4 -76 9 -90 11 -26 5 -184 21 -300 30 -36 3 -83 8 -105 10 -22 2 -78 7
-125 10 -47 3 -116 8 -155 11 -38 3 -108 7 -155 9 -47 2 -139 7 -205 11 -118
6 -1042 13 -1048 8z"/>
<path d="M9648 11405 c-2 -2 -73 -6 -158 -9 -85 -4 -175 -8 -200 -11 -25 -2
-90 -6 -145 -10 -55 -4 -113 -9 -130 -10 -151 -13 -183 -16 -205 -20 -14 -3
-50 -7 -80 -10 -66 -7 -215 -24 -250 -30 -14 -2 -43 -6 -65 -10 -22 -3 -53 -8
-70 -10 -58 -7 -291 -45 -365 -60 -41 -8 -89 -17 -107 -20 -17 -3 -82 -16
-145 -29 -62 -14 -124 -27 -138 -30 -61 -12 -159 -35 -200 -46 -25 -7 -52 -13
-60 -15 -162 -31 -944 -265 -1055 -315 -11 -5 -58 -23 -105 -39 -47 -16 -110
-39 -140 -51 -125 -49 -187 -73 -215 -85 -16 -7 -55 -23 -85 -35 -30 -12 -73
-30 -95 -40 -22 -10 -74 -32 -115 -50 -41 -18 -111 -48 -155 -68 -125 -57
-599 -295 -715 -360 -58 -33 -127 -72 -155 -87 -237 -132 -613 -370 -870 -549
-98 -68 -435 -315 -445 -326 -4 -4 -135 -109 -165 -132 -43 -33 -287 -237
-355 -297 -226 -200 -290 -260 -555 -526 -254 -254 -337 -341 -435 -455 -30
-35 -68 -79 -85 -97 l-30 -33 1 -682 c1 -729 2 -752 38 -960 24 -137 92 -340
163 -488 48 -100 177 -311 215 -352 7 -7 38 -43 67 -78 109 -130 254 -260 394
-353 65 -44 704 -419 793 -465 20 -11 25 -5 72 76 28 48 72 118 97 156 25 37
45 69 45 71 0 19 405 586 440 615 3 3 36 43 72 90 37 47 81 101 98 120 46 50
77 87 145 165 57 65 86 96 240 255 104 108 353 342 470 441 61 51 112 96 115
99 6 7 184 149 265 211 61 46 199 147 290 211 59 41 384 251 405 261 8 4 24
13 35 20 18 11 53 31 242 140 78 44 455 231 591 292 57 25 188 79 290 119 103
41 196 77 207 81 11 5 22 9 25 9 3 1 82 27 175 58 211 71 524 160 640 182 37
7 160 37 190 46 17 4 50 12 75 16 25 4 47 8 50 9 3 1 28 5 55 9 28 4 63 10 79
12 16 3 32 6 35 8 3 2 28 7 55 10 27 4 52 9 55 10 3 2 33 7 66 10 33 4 89 11
125 16 36 5 91 12 123 15 32 4 67 8 77 10 10 2 54 6 97 10 43 3 94 8 113 10
219 26 1006 26 1240 0 19 -2 71 -7 115 -10 44 -3 91 -8 105 -10 14 -2 45 -7
70 -10 329 -39 548 -77 870 -152 245 -56 734 -201 880 -260 8 -3 20 -7 25 -9
6 -1 78 -30 162 -63 84 -34 154 -61 157 -61 3 0 44 -18 93 -41 48 -23 129 -59
178 -81 50 -22 176 -84 280 -137 193 -100 218 -113 315 -171 63 -38 116 -68
145 -84 40 -21 371 -237 440 -287 39 -27 97 -68 130 -91 167 -116 524 -411
728 -602 163 -151 414 -410 528 -542 24 -27 71 -81 104 -119 221 -252 628
-822 774 -1085 17 -30 36 -54 43 -52 7 2 90 48 183 101 583 336 627 363 753
465 180 145 339 327 462 531 102 169 200 415 235 588 47 237 48 265 49 1022
l1 670 -24 30 c-24 30 -127 148 -166 190 -122 131 -177 188 -281 295 -189 193
-374 370 -548 525 -44 39 -84 75 -90 80 -6 6 -40 35 -76 65 -35 30 -70 60 -76
65 -14 13 -110 91 -235 192 -420 340 -969 711 -1449 981 -25 14 -79 44 -120
67 -549 308 -1224 603 -1875 820 -182 60 -531 164 -640 191 -5 1 -84 21 -175
43 -350 88 -825 181 -1100 216 -30 4 -64 9 -75 10 -26 5 -85 13 -160 21 -33 3
-67 8 -75 9 -8 2 -51 6 -95 10 -44 4 -91 8 -105 10 -14 3 -61 7 -105 10 -44 3
-96 8 -115 10 -19 2 -89 7 -155 11 -66 4 -142 8 -170 11 -61 4 -883 12 -887 8z"/>
<path d="M9737 7505 c-1 -2 -61 -5 -132 -9 -72 -4 -146 -9 -165 -11 -19 -2
-73 -6 -120 -10 -47 -3 -112 -10 -145 -15 -57 -8 -94 -13 -202 -26 -27 -3 -84
-11 -128 -19 -44 -8 -98 -17 -120 -20 -22 -4 -47 -8 -55 -10 -8 -3 -33 -7 -55
-11 -63 -9 -423 -92 -495 -114 -36 -10 -114 -33 -175 -49 -255 -70 -686 -233
-985 -371 -505 -233 -1003 -539 -1456 -895 -76 -60 -141 -112 -144 -115 -7 -8
-87 -78 -160 -140 -327 -280 -810 -808 -1053 -1151 -146 -206 -211 -302 -277
-405 -75 -118 -149 -244 -150 -255 0 -3 10 -11 23 -17 12 -6 45 -24 72 -40 28
-16 102 -59 165 -96 63 -36 122 -70 130 -75 8 -6 65 -38 125 -73 61 -34 119
-68 130 -74 11 -6 88 -51 170 -99 83 -48 168 -97 190 -110 22 -12 67 -38 100
-57 33 -19 134 -78 225 -130 91 -52 327 -189 525 -303 198 -115 461 -267 585
-338 124 -71 278 -161 344 -199 65 -38 119 -68 121 -66 1 2 32 53 69 113 59
96 88 139 164 243 232 319 561 641 897 879 347 246 759 444 1160 558 155 44
215 58 430 99 20 4 85 14 135 21 36 6 103 13 200 22 164 15 651 7 760 -12 14
-2 47 -7 74 -10 43 -4 97 -13 251 -40 80 -15 334 -82 450 -120 492 -161 926
-407 1342 -762 68 -58 291 -278 353 -349 25 -28 58 -66 74 -84 89 -102 238
-310 373 -523 23 -37 25 -38 48 -23 19 12 561 326 701 406 16 10 88 51 160 92
522 303 637 368 645 368 5 0 9 3 9 8 0 4 10 12 23 18 12 6 65 35 117 65 52 31
115 67 140 81 25 14 122 70 216 125 94 55 178 103 185 107 8 3 30 16 49 27 19
12 168 98 330 191 162 94 297 172 299 174 9 8 -223 380 -320 514 -22 30 -52
73 -67 95 -106 158 -410 529 -587 714 -165 175 -468 468 -522 506 -10 7 -41
34 -68 59 -208 193 -755 582 -1070 761 -55 32 -116 66 -135 78 -58 33 -451
231 -510 256 -30 13 -82 36 -115 51 -191 89 -804 307 -835 298 -3 -1 -14 4
-26 10 -11 6 -32 13 -45 16 -13 2 -46 12 -74 20 -27 9 -140 37 -250 62 -215
49 -215 50 -266 58 -19 3 -61 10 -94 16 -33 6 -73 13 -90 16 -16 3 -52 9 -80
14 -27 5 -72 12 -100 15 -72 8 -121 14 -200 25 -68 10 -113 14 -265 25 -41 3
-106 8 -145 11 -63 6 -672 13 -678 9z"/>
<path d="M9818 3605 c-1 -1 -42 -6 -89 -9 -542 -39 -1110 -234 -1569 -539
-115 -77 -125 -84 -200 -141 -230 -178 -415 -361 -587 -580 -144 -183 -146
-186 -262 -373 l-20 -33 67 -39 c76 -44 302 -175 347 -201 52 -29 355 -205
460 -265 55 -32 130 -76 167 -97 37 -21 82 -46 100 -57 18 -10 162 -93 321
-185 158 -92 302 -175 320 -185 17 -10 66 -38 107 -61 101 -58 237 -122 340
-160 87 -32 282 -84 355 -94 256 -36 575 -26 761 23 22 5 50 12 64 15 78 14
356 120 410 156 14 9 33 20 43 23 10 4 75 40 145 81 70 40 144 83 165 95 21
12 107 61 190 110 155 90 453 262 517 298 19 11 63 37 97 57 34 20 66 36 71
36 6 0 12 4 14 8 2 5 39 29 83 53 76 43 446 257 517 298 18 11 51 29 73 41 84
45 84 44 51 103 -24 42 -136 211 -168 252 -43 56 -174 218 -198 245 -449 500
-1020 850 -1664 1019 -157 41 -329 72 -546 97 -51 5 -477 14 -482 9z"/>
</g>
</svg>
